<mxfile host="app.diagrams.net" modified="2024-03-20T13:05:22.115Z" agent="Mozilla/5.0 (Windows NT 10.0; Win64; x64) AppleWebKit/537.36 (KHTML, like Gecko) Chrome/122.0.0.0 Safari/537.36 Edg/122.0.0.0" etag="CGFxIRz55IYE4GuWRlJi" version="24.0.7" type="device">
  <diagram name="Page-1" id="0TSQYhWZiU3ZCPUQ66B-">
    <mxGraphModel dx="1426" dy="793" grid="1" gridSize="10" guides="1" tooltips="1" connect="1" arrows="1" fold="1" page="1" pageScale="1" pageWidth="850" pageHeight="1100" math="0" shadow="0">
      <root>
        <mxCell id="0" />
        <mxCell id="1" parent="0" />
        <mxCell id="BjvIwWfCL7ftc54---Ka-102" value="" style="edgeStyle=orthogonalEdgeStyle;rounded=0;orthogonalLoop=1;jettySize=auto;html=1;" edge="1" parent="1" source="BjvIwWfCL7ftc54---Ka-8" target="BjvIwWfCL7ftc54---Ka-101">
          <mxGeometry relative="1" as="geometry" />
        </mxCell>
        <mxCell id="BjvIwWfCL7ftc54---Ka-8" value="Wait for new Emails" style="ellipse;whiteSpace=wrap;html=1;" vertex="1" parent="1">
          <mxGeometry x="31" y="10" width="98" height="46" as="geometry" />
        </mxCell>
        <mxCell id="BjvIwWfCL7ftc54---Ka-97" value="Back to Process Inbox" style="ellipse;whiteSpace=wrap;html=1;" vertex="1" parent="1">
          <mxGeometry x="31" y="161" width="98" height="46" as="geometry" />
        </mxCell>
        <mxCell id="BjvIwWfCL7ftc54---Ka-103" value="" style="edgeStyle=orthogonalEdgeStyle;rounded=0;orthogonalLoop=1;jettySize=auto;html=1;" edge="1" parent="1" source="BjvIwWfCL7ftc54---Ka-101" target="BjvIwWfCL7ftc54---Ka-97">
          <mxGeometry relative="1" as="geometry" />
        </mxCell>
        <mxCell id="BjvIwWfCL7ftc54---Ka-101" value="User Access Request Email is received" style="rounded=0;whiteSpace=wrap;html=1;" vertex="1" parent="1">
          <mxGeometry x="30" y="82" width="100" height="50" as="geometry" />
        </mxCell>
      </root>
    </mxGraphModel>
  </diagram>
</mxfile>
